<svg xmlns="http://www.w3.org/2000/svg" viewBox="0 0 200 200">
  <defs>
    <linearGradient id="catGrad" x1="0%" y1="0%" x2="100%" y2="100%">
      <stop offset="0%" style="stop-color:#00d4ff"/>
      <stop offset="100%" style="stop-color:#00ff88"/>
    </linearGradient>
  </defs>
  <!-- Body/Head -->
  <ellipse cx="100" cy="115" rx="60" ry="55" fill="url(#catGrad)"/>
  <!-- Ears -->
  <polygon points="45,70 35,30 70,55" fill="url(#catGrad)"/>
  <polygon points="155,70 165,30 130,55" fill="url(#catGrad)"/>
  <polygon points="48,65 42,40 65,58" fill="#0d1117"/>
  <polygon points="152,65 158,40 135,58" fill="#0d1117"/>
  <!-- Face -->
  <ellipse cx="100" cy="120" rx="45" ry="40" fill="#0d1117"/>
  <!-- Eyes -->
  <ellipse cx="75" cy="110" rx="12" ry="15" fill="#ffffff"/>
  <ellipse cx="125" cy="110" rx="12" ry="15" fill="#ffffff"/>
  <ellipse cx="75" cy="112" rx="6" ry="8" fill="#0d1117"/>
  <ellipse cx="125" cy="112" rx="6" ry="8" fill="#0d1117"/>
  <circle cx="77" cy="108" r="2" fill="#ffffff"/>
  <circle cx="127" cy="108" r="2" fill="#ffffff"/>
  <!-- Nose -->
  <polygon points="95,128 105,128 100,135" fill="#00ff88"/>
  <!-- Mouth -->
  <path d="M100,135 Q90,145 82,138" stroke="#ffffff" stroke-width="2" fill="none"/>
  <path d="M100,135 Q110,145 118,138" stroke="#ffffff" stroke-width="2" fill="none"/>
  <!-- Whiskers -->
  <line x1="60" y1="130" x2="35" y2="125" stroke="#00d4ff" stroke-width="2"/>
  <line x1="60" y1="135" x2="35" y2="135" stroke="#00d4ff" stroke-width="2"/>
  <line x1="60" y1="140" x2="35" y2="145" stroke="#00d4ff" stroke-width="2"/>
  <line x1="140" y1="130" x2="165" y2="125" stroke="#00d4ff" stroke-width="2"/>
  <line x1="140" y1="135" x2="165" y2="135" stroke="#00d4ff" stroke-width="2"/>
  <line x1="140" y1="140" x2="165" y2="145" stroke="#00d4ff" stroke-width="2"/>
  <!-- LASY on chest -->
  <text x="100" y="170" text-anchor="middle" font-family="Arial Black, sans-serif" font-size="16" fill="#ffffff">LASY</text>
</svg>