<svg xmlns="http://www.w3.org/2000/svg" viewBox="0 0 512 512">
  <defs>
    <linearGradient id="catGrad" x1="0%" y1="0%" x2="100%" y2="100%">
      <stop offset="0%" style="stop-color:#00d4ff"/>
      <stop offset="100%" style="stop-color:#00ff88"/>
    </linearGradient>
  </defs>
  
  <!-- Stylized cat head - geometric -->
  <path d="M150 200 L120 100 L200 160 L256 130 L312 160 L392 100 L362 200 L360 300 L256 350 L152 300 Z" fill="url(#catGrad)"/>
  
  <!-- Inner face -->
  <ellipse cx="256" cy="260" rx="110" ry="100" fill="#0d1117"/>
  
  <!-- Eyes - stylized geometric -->
  <path d="M180 240 L230 240 L230 260 Q205 280 180 260 Z" fill="#ffffff"/>
  <path d="M332 240 L282 240 L282 260 Q307 280 332 260 Z" fill="#ffffff"/>
  
  <!-- Nose - geometric diamond -->
  <polygon points="256,290 245,310 267,310" fill="#00ff88"/>
  
  <!-- Mouth - stylized -->
  <path d="M256 310 L256 335 M235 330 Q256 350 277 330" stroke="#ffffff" stroke-width="4" fill="none" stroke-linecap="round"/>
  
  <!-- LASY text - bold -->
  <text x="256" y="400" text-anchor="middle" font-family="Arial Black, sans-serif" font-size="48" fill="#ffffff" letter-spacing="6">LASY</text>
  
  <!-- Decorative elements -->
  <circle cx="256" cy="450" r="8" fill="#00d4ff"/>
  <circle cx="200" cy="450" r="4" fill="#00ff88"/>
  <circle cx="312" cy="450" r="4" fill="#00ff88"/>
</svg>